<svg width="50" height="14" viewBox="0 0 50 14" fill="none" xmlns="http://www.w3.org/2000/svg">
<path d="M6.3 13L5.98 11.74C5.36667 12.74 4.51333 13.24 3.42 13.24C2.52667 13.24 1.79333 12.9933 1.22 12.5C0.66 11.9933 0.38 11.2867 0.38 10.38C0.38 9.82 0.54 9.33333 0.86 8.92C1.19333 8.49333 1.64667 8.19333 2.22 8.02C2.96667 7.80667 4.12 7.68667 5.68 7.66C5.68 6.78 5.64 6.31333 5.56 6.26C5.49333 6.20667 5.28 6.18 4.92 6.18C4.69333 6.18 4.38 6.19333 3.98 6.22C3.34 6.24667 2.47333 6.32 1.38 6.44C1.27333 5.72 1.19333 4.94667 1.14 4.12C1.84667 3.97333 2.58667 3.85333 3.36 3.76C4.13333 3.65333 4.82667 3.6 5.44 3.6C6.50667 3.6 7.30667 3.78 7.84 4.14C8.37333 4.48667 8.72 4.94667 8.88 5.52C9.04 6.09333 9.11333 6.82 9.1 7.7L9.08 10.64L9.14 13H6.3ZM4.58 11C4.92667 11 5.29333 10.9333 5.68 10.8V9.32H5.52C4.53333 9.32 3.98667 9.37333 3.88 9.48C3.81333 9.54667 3.76 9.64667 3.72 9.78C3.69333 9.91333 3.68 10.04 3.68 10.16C3.68 10.48 3.75333 10.7 3.9 10.82C4.04667 10.94 4.27333 11 4.58 11ZM16.8242 3.6C17.8642 3.6 18.6642 3.91333 19.2242 4.54C19.7976 5.16667 20.0842 6.27333 20.0842 7.86C20.0842 9.02 19.9642 10.0133 19.7242 10.84C19.4976 11.6533 19.2376 12.1733 18.9442 12.4C18.5976 12.68 18.0842 12.8867 17.4042 13.02C16.7242 13.1533 15.9509 13.22 15.0842 13.22C14.4176 13.22 13.6709 13.1667 12.8442 13.06C12.0176 12.9667 11.2776 12.8133 10.6242 12.6V1L14.0842 0.859999V2.74C14.0842 2.84667 14.0776 3.09333 14.0642 3.48C14.0642 3.86667 14.0509 4.19333 14.0242 4.46C13.9976 4.71333 13.9576 4.90667 13.9042 5.04L14.0242 5.18C14.3309 4.71333 14.7176 4.33333 15.1842 4.04C15.6509 3.74667 16.1976 3.6 16.8242 3.6ZM16.2642 10.82C16.3442 10.6867 16.4109 10.3733 16.4642 9.88C16.5309 9.38667 16.5642 8.91333 16.5642 8.46C16.5642 7.92667 16.5376 7.50667 16.4842 7.2C16.4442 6.89333 16.3309 6.65333 16.1442 6.48C15.9709 6.29333 15.6976 6.2 15.3242 6.2C14.9909 6.2 14.5642 6.24667 14.0442 6.34V10.86C14.5376 10.94 15.0509 10.98 15.5842 10.98C15.9709 10.98 16.1976 10.9267 16.2642 10.82ZM25.8459 13.26C24.2459 13.26 23.0459 12.8867 22.2459 12.14C21.4593 11.38 21.0659 10.1867 21.0659 8.56C21.0659 7.66667 21.1459 6.88667 21.3059 6.22C21.4793 5.54 21.6859 5.06667 21.9259 4.8C22.2326 4.45333 22.7926 4.16667 23.6059 3.94C24.4326 3.71333 25.2059 3.6 25.9259 3.6C27.6459 3.6 28.8726 3.96667 29.6059 4.7C30.3393 5.43333 30.7059 6.60667 30.7059 8.22C30.7059 9.95333 30.3126 11.2267 29.5259 12.04C28.7393 12.8533 27.5126 13.26 25.8459 13.26ZM25.9059 10.92C26.4259 10.92 26.7659 10.74 26.9259 10.38C27.0859 10.0067 27.1659 9.35333 27.1659 8.42C27.1659 7.76667 27.1326 7.26667 27.0659 6.92C26.9993 6.56 26.8726 6.3 26.6859 6.14C26.5126 5.96667 26.2393 5.88 25.8659 5.88C25.3326 5.88 25.0259 5.92667 24.9459 6.02C24.8393 6.11333 24.7526 6.40667 24.6859 6.9C24.6193 7.39333 24.5859 7.90667 24.5859 8.44C24.5859 9.34667 24.6726 9.98667 24.8459 10.36C25.0326 10.7333 25.3859 10.92 25.9059 10.92ZM41.2114 3.8V13H38.4314L38.0514 11.46C37.0914 12.62 35.9447 13.2 34.6114 13.2C34.1314 13.2 33.6781 13.1333 33.2514 13C32.8381 12.8667 32.5247 12.6733 32.3114 12.42C32.1914 12.2733 32.0981 11.9067 32.0314 11.32C31.9781 10.7333 31.9514 9.84 31.9514 8.64V3.8H35.3714V8.6C35.3714 8.86667 35.3781 9.18 35.3914 9.54C35.4047 9.9 35.4447 10.1267 35.5114 10.22C35.6047 10.3533 35.8714 10.42 36.3114 10.42L36.6314 10.4C37.0047 10.3867 37.3914 10.3 37.7914 10.14V3.8H41.2114ZM47.0913 9.22C47.0913 9.46 47.0979 9.71333 47.1113 9.98C47.1246 10.2333 47.1646 10.3933 47.2313 10.46C47.3246 10.5533 47.6513 10.6 48.2113 10.6L48.8913 10.58C49.0113 11.22 49.0713 11.96 49.0713 12.8C48.8179 12.8933 48.4446 12.98 47.9513 13.06C47.4713 13.14 47.0113 13.18 46.5713 13.18C45.6513 13.18 44.9379 12.98 44.4313 12.58C43.9379 12.1667 43.6913 11.5333 43.6913 10.68V5.76H42.1913V3.94L43.6913 3.8L44.5913 1.6L47.0913 1.46V3.8H49.2113V5.76H47.0913V9.22Z" fill="white"/>
</svg>
