<svg width="37" height="17" viewBox="0 0 37 17" fill="none" xmlns="http://www.w3.org/2000/svg">
<path d="M7 3.6C8.04 3.6 8.84 3.91333 9.4 4.54C9.97333 5.16667 10.26 6.27333 10.26 7.86C10.26 9.02 10.14 10.0133 9.9 10.84C9.67333 11.6533 9.41333 12.1733 9.12 12.4C8.77333 12.68 8.26 12.8867 7.58 13.02C6.9 13.1533 6.12667 13.22 5.26 13.22C4.59333 13.22 3.84667 13.1667 3.02 13.06C2.19333 12.9667 1.45333 12.8133 0.8 12.6V1L4.26 0.859999V2.74C4.26 2.84667 4.25333 3.09333 4.24 3.48C4.24 3.86667 4.22667 4.19333 4.2 4.46C4.17333 4.71333 4.13333 4.90667 4.08 5.04L4.2 5.18C4.50667 4.71333 4.89333 4.33333 5.36 4.04C5.82667 3.74667 6.37333 3.6 7 3.6ZM6.44 10.82C6.52 10.6867 6.58667 10.3733 6.64 9.88C6.70667 9.38667 6.74 8.91333 6.74 8.46C6.74 7.92667 6.71333 7.50667 6.66 7.2C6.62 6.89333 6.50667 6.65333 6.32 6.48C6.14667 6.29333 5.87333 6.2 5.5 6.2C5.16667 6.2 4.74 6.24667 4.22 6.34V10.86C4.71333 10.94 5.22667 10.98 5.76 10.98C6.14667 10.98 6.37333 10.9267 6.44 10.82ZM11.6417 1L15.0617 0.859999V13H11.6417V1ZM21.1975 13.26C19.5975 13.26 18.3975 12.8867 17.5975 12.14C16.8108 11.38 16.4175 10.1867 16.4175 8.56C16.4175 7.66667 16.4975 6.88667 16.6575 6.22C16.8308 5.54 17.0375 5.06667 17.2775 4.8C17.5842 4.45333 18.1442 4.16667 18.9575 3.94C19.7842 3.71333 20.5575 3.6 21.2775 3.6C22.9975 3.6 24.2242 3.96667 24.9575 4.7C25.6908 5.43333 26.0575 6.60667 26.0575 8.22C26.0575 9.95333 25.6642 11.2267 24.8775 12.04C24.0908 12.8533 22.8642 13.26 21.1975 13.26ZM21.2575 10.92C21.7775 10.92 22.1175 10.74 22.2775 10.38C22.4375 10.0067 22.5175 9.35333 22.5175 8.42C22.5175 7.76667 22.4842 7.26667 22.4175 6.92C22.3508 6.56 22.2242 6.3 22.0375 6.14C21.8642 5.96667 21.5908 5.88 21.2175 5.88C20.6842 5.88 20.3775 5.92667 20.2975 6.02C20.1908 6.11333 20.1042 6.40667 20.0375 6.9C19.9708 7.39333 19.9375 7.90667 19.9375 8.44C19.9375 9.34667 20.0242 9.98667 20.1975 10.36C20.3842 10.7333 20.7375 10.92 21.2575 10.92ZM32.163 3.64C32.7896 3.64 33.443 3.68667 34.123 3.78C34.803 3.86 35.5963 3.97333 36.503 4.12V12.08C36.503 13.9867 35.8696 15.4667 34.603 16.52C34.443 16.6533 34.083 16.7667 33.523 16.86C32.963 16.9533 32.3296 17 31.623 17C30.0896 17 28.8763 16.8 27.983 16.4C27.9696 16.1067 27.9896 15.72 28.043 15.24C28.1096 14.76 28.1763 14.38 28.243 14.1C29.203 14.2467 30.143 14.32 31.063 14.32C31.5296 14.32 31.923 14.2933 32.243 14.24C32.5763 14.2 32.783 14.1333 32.863 14.04C32.9696 13.9333 33.0496 13.5333 33.103 12.84C33.1163 12.6533 33.123 12.38 33.123 12.02V11.52C32.7896 12.0133 32.363 12.3667 31.843 12.58C31.323 12.7933 30.8563 12.9 30.443 12.9C29.323 12.9 28.4763 12.5333 27.903 11.8C27.3296 11.0667 27.043 9.99333 27.043 8.58C27.043 7.64667 27.1696 6.77333 27.423 5.96C27.6896 5.13333 28.0496 4.56 28.503 4.24C28.7963 4.04 29.2696 3.89333 29.923 3.8C30.5896 3.69333 31.3363 3.64 32.163 3.64ZM31.743 10.4C32.2363 10.4 32.683 10.32 33.083 10.16V5.98C32.9363 5.95333 32.7163 5.92667 32.423 5.9C32.2896 5.88667 32.0896 5.88 31.823 5.88C31.4096 5.88 31.1496 5.92 31.043 6C30.8963 6.10667 30.7763 6.40667 30.683 6.9C30.603 7.38 30.563 7.88667 30.563 8.42C30.563 9.15333 30.643 9.66667 30.803 9.96C30.9763 10.2533 31.2896 10.4 31.743 10.4Z" fill="white"/>
</svg>
