<svg width="48" height="14" viewBox="0 0 48 14" fill="none" xmlns="http://www.w3.org/2000/svg">
<path d="M9.72 4.38C9.84 4.52667 9.92667 4.89333 9.98 5.48C10.0467 6.06667 10.08 6.96 10.08 8.16V13H6.66V8.2C6.66 8.14667 6.66 7.88667 6.66 7.42C6.66 6.94 6.62667 6.64667 6.56 6.54C6.52 6.48667 6.42 6.44667 6.26 6.42C6.11333 6.39333 5.94 6.38 5.74 6.38L5.4 6.4C5.02667 6.41333 4.64 6.5 4.24 6.66V13H0.82V1L4.24 0.859999V3.2C4.24 4.16 4.20667 4.8 4.14 5.12L4.16 5.14C5.06667 4.11333 6.15333 3.6 7.42 3.6C7.9 3.6 8.34667 3.66667 8.76 3.8C9.18667 3.93333 9.50667 4.12667 9.72 4.38ZM16.0998 13.26C14.4998 13.26 13.2998 12.8867 12.4998 12.14C11.7132 11.38 11.3198 10.1867 11.3198 8.56C11.3198 7.66667 11.3998 6.88667 11.5598 6.22C11.7332 5.54 11.9398 5.06667 12.1798 4.8C12.4865 4.45333 13.0465 4.16667 13.8598 3.94C14.6865 3.71333 15.4598 3.6 16.1798 3.6C17.8998 3.6 19.1265 3.96667 19.8598 4.7C20.5932 5.43333 20.9598 6.60667 20.9598 8.22C20.9598 9.95333 20.5665 11.2267 19.7798 12.04C18.9932 12.8533 17.7665 13.26 16.0998 13.26ZM16.1598 10.92C16.6798 10.92 17.0198 10.74 17.1798 10.38C17.3398 10.0067 17.4198 9.35333 17.4198 8.42C17.4198 7.76667 17.3865 7.26667 17.3198 6.92C17.2532 6.56 17.1265 6.3 16.9398 6.14C16.7665 5.96667 16.4932 5.88 16.1198 5.88C15.5865 5.88 15.2798 5.92667 15.1998 6.02C15.0932 6.11333 15.0065 6.40667 14.9398 6.9C14.8732 7.39333 14.8398 7.90667 14.8398 8.44C14.8398 9.34667 14.9265 9.98667 15.0998 10.36C15.2865 10.7333 15.6398 10.92 16.1598 10.92ZM36.6453 4.44C36.8586 4.76 36.9653 6 36.9653 8.16V13H33.5453V8.5V7.42C33.5453 6.92667 33.4986 6.63333 33.4053 6.54C33.2986 6.43333 33.072 6.38 32.7253 6.38L32.4853 6.4C32.072 6.42667 31.6786 6.52 31.3053 6.68C31.3186 6.96 31.3253 7.45333 31.3253 8.16V13H27.9053V8.5V7.3C27.9053 6.88667 27.8586 6.63333 27.7653 6.54C27.6586 6.43333 27.432 6.38 27.0853 6.38L26.8453 6.4C26.472 6.41333 26.0853 6.5 25.6853 6.66V13H22.2653V3.8H25.0453L25.4053 5.3C25.8453 4.71333 26.352 4.28667 26.9253 4.02C27.4986 3.74 28.0786 3.6 28.6653 3.6C29.1586 3.6 29.6253 3.67333 30.0653 3.82C30.5186 3.96667 30.832 4.17333 31.0053 4.44C31.0853 4.56 31.152 4.78 31.2053 5.1C31.632 4.58 32.1186 4.2 32.6653 3.96C33.212 3.72 33.7586 3.6 34.3053 3.6C34.7986 3.6 35.2653 3.67333 35.7053 3.82C36.1586 3.96667 36.472 4.17333 36.6453 4.44ZM44.1344 10.6C44.4677 10.6 45.0877 10.5667 45.9944 10.5C46.1144 10.5 46.3344 10.4867 46.6544 10.46L46.9544 12.52C45.9277 13 44.5944 13.24 42.9544 13.24C41.421 13.24 40.241 12.8533 39.4144 12.08C38.601 11.3067 38.1944 10.14 38.1944 8.58C38.1944 7.78 38.2944 7.00667 38.4944 6.26C38.7077 5.51333 38.9477 4.99333 39.2144 4.7C39.4944 4.40667 40.0144 4.15333 40.7744 3.94C41.5344 3.72667 42.2877 3.62 43.0344 3.62C44.2344 3.62 45.1344 3.83333 45.7344 4.26C46.3344 4.68667 46.7277 5.28 46.9144 6.04C47.101 6.78667 47.1944 7.79333 47.1944 9.06C46.2877 9.11333 45.401 9.14 44.5344 9.14H41.6944C41.6944 9.56667 41.781 9.88667 41.9544 10.1C42.141 10.3133 42.401 10.4533 42.7344 10.52C43.0677 10.5733 43.5344 10.6 44.1344 10.6ZM41.8944 6C41.8144 6.04 41.7544 6.21333 41.7144 6.52C41.6744 6.82667 41.6477 7.17333 41.6344 7.56H42.6744C43.301 7.56 43.7544 7.55333 44.0344 7.54C44.0344 6.9 43.941 6.44667 43.7544 6.18C43.581 5.91333 43.2744 5.78 42.8344 5.78C42.4744 5.78 42.161 5.85333 41.8944 6Z" fill="white"/>
</svg>
