<svg width="244" height="76" viewBox="0 0 244 76" fill="none" xmlns="http://www.w3.org/2000/svg">
<path d="M105.52 64.872V67H98.496V65.224C99.04 64.7867 99.5573 64.3653 100.048 63.96C100.539 63.544 101.088 63.0587 101.696 62.504C101.995 62.2373 102.213 61.9493 102.352 61.64C102.491 61.3307 102.56 61.0373 102.56 60.76C102.56 60.472 102.491 60.248 102.352 60.088C102.235 59.9707 101.616 59.912 100.496 59.912L99.424 59.928C99.2853 59.9387 99.1147 59.944 98.912 59.944C98.88 59.7947 98.8427 59.5013 98.8 59.064C98.768 58.6267 98.752 58.3013 98.752 58.088C99.9573 57.8747 100.96 57.768 101.76 57.768C102.848 57.768 103.712 57.976 104.352 58.392C105.003 58.7973 105.328 59.5013 105.328 60.504C105.328 60.984 105.205 61.48 104.96 61.992C104.715 62.4933 104.235 63.0213 103.52 63.576C103.04 63.9493 102.411 64.392 101.632 64.904L105.52 64.872ZM110.464 57.768C111.349 57.768 112.085 57.8853 112.672 58.12C113.259 58.344 113.723 58.8027 114.064 59.496C114.405 60.1787 114.576 61.176 114.576 62.488C114.576 63.7467 114.411 64.7227 114.08 65.416C113.749 66.0987 113.285 66.568 112.688 66.824C112.101 67.08 111.365 67.208 110.48 67.208C109.2 67.208 108.219 66.872 107.536 66.2C106.853 65.5173 106.512 64.3493 106.512 62.696C106.512 61.032 106.843 59.7947 107.504 58.984C108.165 58.1733 109.152 57.768 110.464 57.768ZM110.56 65.144C111.093 65.144 111.44 64.936 111.6 64.52C111.76 64.0933 111.84 63.4267 111.84 62.52C111.84 61.592 111.744 60.9093 111.552 60.472C111.36 60.024 110.997 59.8 110.464 59.8C110.091 59.8 109.84 59.864 109.712 59.992C109.616 60.0987 109.531 60.4187 109.456 60.952C109.392 61.4853 109.36 62.0293 109.36 62.584C109.36 63.5227 109.451 64.184 109.632 64.568C109.824 64.952 110.133 65.144 110.56 65.144ZM122.614 64.872V67H115.59V65.224C116.134 64.7867 116.651 64.3653 117.142 63.96C117.632 63.544 118.182 63.0587 118.79 62.504C119.088 62.2373 119.307 61.9493 119.446 61.64C119.584 61.3307 119.654 61.0373 119.654 60.76C119.654 60.472 119.584 60.248 119.446 60.088C119.328 59.9707 118.71 59.912 117.59 59.912L116.518 59.928C116.379 59.9387 116.208 59.944 116.006 59.944C115.974 59.7947 115.936 59.5013 115.894 59.064C115.862 58.6267 115.846 58.3013 115.846 58.088C117.051 57.8747 118.054 57.768 118.854 57.768C119.942 57.768 120.806 57.976 121.446 58.392C122.096 58.7973 122.422 59.5013 122.422 60.504C122.422 60.984 122.299 61.48 122.054 61.992C121.808 62.4933 121.328 63.0213 120.614 63.576C120.134 63.9493 119.504 64.392 118.726 64.904L122.614 64.872ZM127.35 61.304C128.438 61.304 129.238 61.5813 129.75 62.136C130.262 62.68 130.518 63.384 130.518 64.248C130.518 66.2107 129.158 67.192 126.438 67.192C125.563 67.192 124.566 67.1067 123.446 66.936L123.798 65.176C124.683 65.272 125.344 65.32 125.782 65.32C126.432 65.32 126.928 65.2293 127.27 65.048C127.611 64.8667 127.782 64.5573 127.782 64.12C127.782 63.9707 127.755 63.816 127.702 63.656C127.659 63.4853 127.59 63.3787 127.494 63.336C127.451 63.3147 127.334 63.2933 127.142 63.272C126.96 63.2507 126.742 63.24 126.486 63.24C125.696 63.24 124.923 63.304 124.166 63.432L124.086 63.352L124.742 57.88H130.15V60.008L126.726 59.992L126.55 61.352C126.838 61.32 127.104 61.304 127.35 61.304Z" fill="#F6F6F6" fill-opacity="0.67"/>
<g filter="url(#filter0_d_5_12)">
<path d="M19.52 32.76C19.52 35.1333 18.76 36.84 17.24 37.88C15.7467 38.92 13.6133 39.44 10.84 39.44C8.89333 39.44 6.65333 39.16 4.12 38.6C4.17333 38.0667 4.29333 37.3067 4.48 36.32C4.69333 35.3067 4.86667 34.5333 5 34C5.96 34.16 7.02667 34.2933 8.2 34.4C9.37333 34.48 10.3733 34.52 11.2 34.52C11.92 34.52 12.36 34.48 12.52 34.4C12.5467 34.3733 12.5733 34.3067 12.6 34.2C12.6533 34.0667 12.68 33.9333 12.68 33.8C12.68 33.2667 12.3467 32.9067 11.68 32.72C11.4667 32.6667 10.6533 32.44 9.24 32.04C7.82667 31.64 6.66667 30.92 5.76 29.88C4.88 28.8133 4.44 27.4933 4.44 25.92C4.44 25.0933 4.62667 24.1733 5 23.16C5.37333 22.1467 5.77333 21.5067 6.2 21.24C6.52 21.0267 7.29333 20.8133 8.52 20.6C9.74667 20.36 10.88 20.24 11.92 20.24C14.1333 20.24 16.36 20.4 18.6 20.72C18.6 21.2 18.5333 22.0133 18.4 23.16C18.2667 24.28 18.1467 24.9867 18.04 25.28C15.7733 24.9867 13.9467 24.84 12.56 24.84C11.84 24.84 11.3733 24.88 11.16 24.96C11.1067 24.9867 11.0533 25.0667 11 25.2C10.9467 25.3067 10.92 25.4533 10.92 25.64C10.92 26.0133 11.04 26.28 11.28 26.44C11.52 26.6267 12.1467 26.8533 13.16 27.12C14.36 27.4667 15.3867 27.8267 16.24 28.2C17.12 28.5733 17.88 29.1333 18.52 29.88C19.1867 30.6267 19.52 31.5867 19.52 32.76ZM32.9484 34.2C33.6151 34.2 34.8551 34.1333 36.6684 34C36.9084 34 37.3484 33.9733 37.9884 33.92L38.5884 38.04C36.5351 39 33.8684 39.48 30.5884 39.48C27.5218 39.48 25.1618 38.7067 23.5084 37.16C21.8818 35.6133 21.0684 33.28 21.0684 30.16C21.0684 28.56 21.2684 27.0133 21.6684 25.52C22.0951 24.0267 22.5751 22.9867 23.1084 22.4C23.6684 21.8133 24.7084 21.3067 26.2284 20.88C27.7484 20.4533 29.2551 20.24 30.7484 20.24C33.1484 20.24 34.9484 20.6667 36.1484 21.52C37.3484 22.3733 38.1351 23.56 38.5084 25.08C38.8818 26.5733 39.0684 28.5867 39.0684 31.12C37.2551 31.2267 35.4818 31.28 33.7484 31.28H28.0684C28.0684 32.1333 28.2418 32.7733 28.5884 33.2C28.9618 33.6267 29.4818 33.9067 30.1484 34.04C30.8151 34.1467 31.7484 34.2 32.9484 34.2ZM28.4684 25C28.3084 25.08 28.1884 25.4267 28.1084 26.04C28.0284 26.6533 27.9751 27.3467 27.9484 28.12H30.0284C31.2818 28.12 32.1884 28.1067 32.7484 28.08C32.7484 26.8 32.5618 25.8933 32.1884 25.36C31.8418 24.8267 31.2284 24.56 30.3484 24.56C29.6284 24.56 29.0018 24.7067 28.4684 25ZM41.5959 15L48.4359 14.72V39H41.5959V15ZM60.5475 18.52C60.3608 18.7067 60.2675 19.28 60.2675 20.24V20.6H64.5075V24.52H60.2675V39H53.4275V24.52H50.4275V20.96L53.4275 20.6V20C53.4275 18.8267 53.5875 17.7067 53.9075 16.64C54.2275 15.5733 54.5208 14.9333 54.7875 14.72C55.6142 14.0267 57.3742 13.68 60.0675 13.68C61.5342 13.68 63.1742 13.7867 64.9875 14C64.9875 14.32 64.9342 14.96 64.8275 15.92C64.7475 16.88 64.6675 17.6933 64.5875 18.36L62.8675 18.32C61.4542 18.32 60.6808 18.3867 60.5475 18.52ZM65.9616 25.84H77.9616V31.56H65.9616V25.84ZM89.4481 31.44C89.4481 31.92 89.4615 32.4267 89.4881 32.96C89.5148 33.4667 89.5948 33.7867 89.7281 33.92C89.9148 34.1067 90.5681 34.2 91.6881 34.2L93.0481 34.16C93.2881 35.44 93.4081 36.92 93.4081 38.6C92.9015 38.7867 92.1548 38.96 91.1681 39.12C90.2081 39.28 89.2881 39.36 88.4081 39.36C86.5681 39.36 85.1415 38.96 84.1281 38.16C83.1415 37.3333 82.6481 36.0667 82.6481 34.36V24.52H79.6481V20.88L82.6481 20.6L84.4481 16.2L89.4481 15.92V20.6H93.6881V24.52H89.4481V31.44ZM106.694 39L106.054 36.48C104.827 38.48 103.12 39.48 100.934 39.48C99.1471 39.48 97.6804 38.9867 96.5338 38C95.4138 36.9867 94.8538 35.5733 94.8538 33.76C94.8538 32.64 95.1738 31.6667 95.8138 30.84C96.4804 29.9867 97.3871 29.3867 98.5338 29.04C100.027 28.6133 102.334 28.3733 105.454 28.32C105.454 26.56 105.374 25.6267 105.214 25.52C105.08 25.4133 104.654 25.36 103.934 25.36C103.48 25.36 102.854 25.3867 102.054 25.44C100.774 25.4933 99.0404 25.64 96.8538 25.88C96.6404 24.44 96.4804 22.8933 96.3738 21.24C97.7871 20.9467 99.2671 20.7067 100.814 20.52C102.36 20.3067 103.747 20.2 104.974 20.2C107.107 20.2 108.707 20.56 109.774 21.28C110.84 21.9733 111.534 22.8933 111.854 24.04C112.174 25.1867 112.32 26.64 112.294 28.4L112.254 34.28L112.374 39H106.694ZM103.254 35C103.947 35 104.68 34.8667 105.454 34.6V31.64H105.134C103.16 31.64 102.067 31.7467 101.854 31.96C101.72 32.0933 101.614 32.2933 101.534 32.56C101.48 32.8267 101.454 33.08 101.454 33.32C101.454 33.96 101.6 34.4 101.894 34.64C102.187 34.88 102.64 35 103.254 35ZM133.782 20.6V39H128.222L127.462 35.92C125.542 38.24 123.249 39.4 120.582 39.4C119.622 39.4 118.716 39.2667 117.862 39C117.036 38.7333 116.409 38.3467 115.982 37.84C115.742 37.5467 115.556 36.8133 115.422 35.64C115.316 34.4667 115.262 32.68 115.262 30.28V20.6H122.102V30.2C122.102 30.7333 122.116 31.36 122.142 32.08C122.169 32.8 122.249 33.2533 122.382 33.44C122.569 33.7067 123.102 33.84 123.982 33.84L124.622 33.8C125.369 33.7733 126.142 33.6 126.942 33.28V20.6H133.782ZM146.662 20.28C147.915 20.28 149.222 20.3733 150.582 20.56C151.942 20.72 153.529 20.9467 155.342 21.24V37.16C155.342 40.9733 154.075 43.9333 151.542 46.04C151.222 46.3067 150.502 46.5333 149.382 46.72C148.262 46.9067 146.995 47 145.582 47C142.515 47 140.089 46.6 138.302 45.8C138.275 45.2133 138.315 44.44 138.422 43.48C138.555 42.52 138.689 41.76 138.822 41.2C140.742 41.4933 142.622 41.64 144.462 41.64C145.395 41.64 146.182 41.5867 146.822 41.48C147.489 41.4 147.902 41.2667 148.062 41.08C148.275 40.8667 148.435 40.0667 148.542 38.68C148.569 38.3067 148.582 37.76 148.582 37.04V36.04C147.915 37.0267 147.062 37.7333 146.022 38.16C144.982 38.5867 144.049 38.8 143.222 38.8C140.982 38.8 139.289 38.0667 138.142 36.6C136.995 35.1333 136.422 32.9867 136.422 30.16C136.422 28.2933 136.675 26.5467 137.182 24.92C137.715 23.2667 138.435 22.12 139.342 21.48C139.929 21.08 140.875 20.7867 142.182 20.6C143.515 20.3867 145.009 20.28 146.662 20.28ZM145.822 33.8C146.809 33.8 147.702 33.64 148.502 33.32V24.96C148.209 24.9067 147.769 24.8533 147.182 24.8C146.915 24.7733 146.515 24.76 145.982 24.76C145.155 24.76 144.635 24.84 144.422 25C144.129 25.2133 143.889 25.8133 143.702 26.8C143.542 27.76 143.462 28.7733 143.462 29.84C143.462 31.3067 143.622 32.3333 143.942 32.92C144.289 33.5067 144.915 33.8 145.822 33.8ZM176.385 21.76C176.625 22.0533 176.799 22.7867 176.905 23.96C177.039 25.1333 177.105 26.92 177.105 29.32V39H170.265V29.4C170.265 29.2933 170.265 28.7733 170.265 27.84C170.265 26.88 170.199 26.2933 170.065 26.08C169.985 25.9733 169.785 25.8933 169.465 25.84C169.172 25.7867 168.825 25.76 168.425 25.76L167.745 25.8C166.999 25.8267 166.225 26 165.425 26.32V39H158.585V15L165.425 14.72V19.4C165.425 21.32 165.359 22.6 165.225 23.24L165.265 23.28C167.079 21.2267 169.252 20.2 171.785 20.2C172.745 20.2 173.639 20.3333 174.465 20.6C175.319 20.8667 175.959 21.2533 176.385 21.76ZM188.745 31.44C188.745 31.92 188.758 32.4267 188.785 32.96C188.812 33.4667 188.892 33.7867 189.025 33.92C189.212 34.1067 189.865 34.2 190.985 34.2L192.345 34.16C192.585 35.44 192.705 36.92 192.705 38.6C192.198 38.7867 191.452 38.96 190.465 39.12C189.505 39.28 188.585 39.36 187.705 39.36C185.865 39.36 184.438 38.96 183.425 38.16C182.438 37.3333 181.945 36.0667 181.945 34.36V24.52H178.945V20.88L181.945 20.6L183.745 16.2L188.745 15.92V20.6H192.985V24.52H188.745V31.44ZM198.751 39.32C197.657 39.32 196.751 38.96 196.031 38.24C195.337 37.52 194.991 36.5467 194.991 35.32C194.991 34.2533 195.351 33.36 196.071 32.64C196.817 31.8933 197.751 31.52 198.871 31.52C199.937 31.52 200.831 31.8933 201.551 32.64C202.271 33.36 202.631 34.2533 202.631 35.32C202.631 36.5467 202.271 37.52 201.551 38.24C200.857 38.96 199.924 39.32 198.751 39.32ZM217.29 20.2C217.637 20.2 217.997 20.24 218.37 20.32C218.77 20.4 219.063 20.4933 219.25 20.6C219.25 21.1867 219.183 22.16 219.05 23.52C218.917 24.8533 218.797 25.8 218.69 26.36C218.423 26.3333 217.93 26.32 217.21 26.32C215.53 26.32 214.037 26.4133 212.73 26.6V39H205.89V20.6H211.61L212.41 23.56H212.45C213.223 22.5467 214.05 21.7333 214.93 21.12C215.81 20.5067 216.597 20.2 217.29 20.2ZM239.446 20.6V39H233.886L233.126 35.92C231.206 38.24 228.913 39.4 226.246 39.4C225.286 39.4 224.38 39.2667 223.526 39C222.7 38.7333 222.073 38.3467 221.646 37.84C221.406 37.5467 221.22 36.8133 221.086 35.64C220.98 34.4667 220.926 32.68 220.926 30.28V20.6H227.766V30.2C227.766 30.7333 227.78 31.36 227.806 32.08C227.833 32.8 227.913 33.2533 228.046 33.44C228.233 33.7067 228.766 33.84 229.646 33.84L230.286 33.8C231.033 33.7733 231.806 33.6 232.606 33.28V20.6H239.446Z" fill="#F6F6F6" fill-opacity="0.67" shape-rendering="crispEdges"/>
</g>
<defs>
<filter id="filter0_d_5_12" x="0.119995" y="13.68" width="243.326" height="41.32" filterUnits="userSpaceOnUse" color-interpolation-filters="sRGB">
<feFlood flood-opacity="0" result="BackgroundImageFix"/>
<feColorMatrix in="SourceAlpha" type="matrix" values="0 0 0 0 0 0 0 0 0 0 0 0 0 0 0 0 0 0 127 0" result="hardAlpha"/>
<feOffset dy="4"/>
<feGaussianBlur stdDeviation="2"/>
<feComposite in2="hardAlpha" operator="out"/>
<feColorMatrix type="matrix" values="0 0 0 0 0 0 0 0 0 0 0 0 0 0 0 0 0 0 0.15 0"/>
<feBlend mode="normal" in2="BackgroundImageFix" result="effect1_dropShadow_5_12"/>
<feBlend mode="normal" in="SourceGraphic" in2="effect1_dropShadow_5_12" result="shape"/>
</filter>
</defs>
</svg>
