<svg width="55" height="14" viewBox="0 0 55 14" fill="none" xmlns="http://www.w3.org/2000/svg">
<path d="M8.26 9.88C8.26 11.0667 7.88 11.92 7.12 12.44C6.37333 12.96 5.30667 13.22 3.92 13.22C2.94667 13.22 1.82667 13.08 0.56 12.8C0.586667 12.5333 0.646667 12.1533 0.74 11.66C0.846667 11.1533 0.933333 10.7667 1 10.5C1.48 10.58 2.01333 10.6467 2.6 10.7C3.18667 10.74 3.68667 10.76 4.1 10.76C4.46 10.76 4.68 10.74 4.76 10.7C4.77333 10.6867 4.78667 10.6533 4.8 10.6C4.82667 10.5333 4.84 10.4667 4.84 10.4C4.84 10.1333 4.67333 9.95333 4.34 9.86C4.23333 9.83333 3.82667 9.72 3.12 9.52C2.41333 9.32 1.83333 8.96 1.38 8.44C0.94 7.90667 0.72 7.24667 0.72 6.46C0.72 6.04667 0.813333 5.58667 1 5.08C1.18667 4.57333 1.38667 4.25333 1.6 4.12C1.76 4.01333 2.14667 3.90667 2.76 3.8C3.37333 3.68 3.94 3.62 4.46 3.62C5.56667 3.62 6.68 3.7 7.8 3.86C7.8 4.1 7.76667 4.50667 7.7 5.08C7.63333 5.64 7.57333 5.99333 7.52 6.14C6.38667 5.99333 5.47333 5.92 4.78 5.92C4.42 5.92 4.18667 5.94 4.08 5.98C4.05333 5.99333 4.02667 6.03333 4 6.1C3.97333 6.15333 3.96 6.22667 3.96 6.32C3.96 6.50667 4.02 6.64 4.14 6.72C4.26 6.81333 4.57333 6.92667 5.08 7.06C5.68 7.23333 6.19333 7.41333 6.62 7.6C7.06 7.78667 7.44 8.06667 7.76 8.44C8.09333 8.81333 8.26 9.29333 8.26 9.88ZM14.9742 10.6C15.3076 10.6 15.9276 10.5667 16.8342 10.5C16.9542 10.5 17.1742 10.4867 17.4942 10.46L17.7942 12.52C16.7676 13 15.4342 13.24 13.7942 13.24C12.2609 13.24 11.0809 12.8533 10.2542 12.08C9.44089 11.3067 9.03422 10.14 9.03422 8.58C9.03422 7.78 9.13422 7.00667 9.33422 6.26C9.54755 5.51333 9.78755 4.99333 10.0542 4.7C10.3342 4.40667 10.8542 4.15333 11.6142 3.94C12.3742 3.72667 13.1276 3.62 13.8742 3.62C15.0742 3.62 15.9742 3.83333 16.5742 4.26C17.1742 4.68667 17.5676 5.28 17.7542 6.04C17.9409 6.78667 18.0342 7.79333 18.0342 9.06C17.1276 9.11333 16.2409 9.14 15.3742 9.14H12.5342C12.5342 9.56667 12.6209 9.88667 12.7942 10.1C12.9809 10.3133 13.2409 10.4533 13.5742 10.52C13.9076 10.5733 14.3742 10.6 14.9742 10.6ZM12.7342 6C12.6542 6.04 12.5942 6.21333 12.5542 6.52C12.5142 6.82667 12.4876 7.17333 12.4742 7.56H13.5142C14.1409 7.56 14.5942 7.55333 14.8742 7.54C14.8742 6.9 14.7809 6.44667 14.5942 6.18C14.4209 5.91333 14.1142 5.78 13.6742 5.78C13.3142 5.78 13.0009 5.85333 12.7342 6ZM24.718 13L24.398 11.74C23.7846 12.74 22.9313 13.24 21.838 13.24C20.9446 13.24 20.2113 12.9933 19.638 12.5C19.078 11.9933 18.798 11.2867 18.798 10.38C18.798 9.82 18.958 9.33333 19.278 8.92C19.6113 8.49333 20.0646 8.19333 20.638 8.02C21.3846 7.80667 22.538 7.68667 24.098 7.66C24.098 6.78 24.058 6.31333 23.978 6.26C23.9113 6.20667 23.698 6.18 23.338 6.18C23.1113 6.18 22.798 6.19333 22.398 6.22C21.758 6.24667 20.8913 6.32 19.798 6.44C19.6913 5.72 19.6113 4.94667 19.558 4.12C20.2646 3.97333 21.0046 3.85333 21.778 3.76C22.5513 3.65333 23.2446 3.6 23.858 3.6C24.9246 3.6 25.7246 3.78 26.258 4.14C26.7913 4.48667 27.138 4.94667 27.298 5.52C27.458 6.09333 27.5313 6.82 27.518 7.7L27.498 10.64L27.558 13H24.718ZM22.998 11C23.3446 11 23.7113 10.9333 24.098 10.8V9.32H23.938C22.9513 9.32 22.4046 9.37333 22.298 9.48C22.2313 9.54667 22.178 9.64667 22.138 9.78C22.1113 9.91333 22.098 10.04 22.098 10.16C22.098 10.48 22.1713 10.7 22.318 10.82C22.4646 10.94 22.6913 11 22.998 11ZM34.7622 3.6C34.9355 3.6 35.1155 3.62 35.3022 3.66C35.5022 3.7 35.6489 3.74667 35.7422 3.8C35.7422 4.09333 35.7089 4.58 35.6422 5.26C35.5755 5.92667 35.5155 6.4 35.4622 6.68C35.3289 6.66667 35.0822 6.66 34.7222 6.66C33.8822 6.66 33.1355 6.70667 32.4822 6.8V13H29.0622V3.8H31.9222L32.3222 5.28H32.3422C32.7289 4.77333 33.1422 4.36667 33.5822 4.06C34.0222 3.75333 34.4155 3.6 34.7622 3.6ZM44.3803 12.72C43.3003 13.08 42.0936 13.26 40.7603 13.26C39.267 13.26 38.147 12.8867 37.4003 12.14C36.667 11.38 36.3003 10.2 36.3003 8.6C36.3003 7.81333 36.407 7.04 36.6203 6.28C36.8336 5.50667 37.0603 4.98667 37.3003 4.72C37.5803 4.41333 38.127 4.15333 38.9403 3.94C39.767 3.72667 40.6203 3.62 41.5003 3.62C42.4203 3.62 43.347 3.7 44.2803 3.86C44.2536 4.19333 44.207 4.58667 44.1403 5.04C44.087 5.48 44.027 5.87333 43.9603 6.22C43.1336 6.16667 42.3536 6.14 41.6203 6.14C40.9003 6.14 40.4403 6.18 40.2403 6.26C40.1336 6.3 40.0336 6.57333 39.9403 7.08C39.8603 7.58667 39.8203 8.06 39.8203 8.5C39.8203 9.08667 39.9003 9.54 40.0603 9.86C40.2336 10.1667 40.5003 10.38 40.8603 10.5C41.2203 10.62 41.707 10.68 42.3203 10.68C42.587 10.68 43.1736 10.6533 44.0803 10.6L44.3803 12.72ZM54.427 4.38C54.547 4.52667 54.6337 4.89333 54.687 5.48C54.7537 6.06667 54.787 6.96 54.787 8.16V13H51.367V8.2C51.367 8.14667 51.367 7.88667 51.367 7.42C51.367 6.94 51.3337 6.64667 51.267 6.54C51.227 6.48667 51.127 6.44667 50.967 6.42C50.8204 6.39333 50.647 6.38 50.447 6.38L50.107 6.4C49.7337 6.41333 49.347 6.5 48.947 6.66V13H45.527V1L48.947 0.859999V3.2C48.947 4.16 48.9137 4.8 48.847 5.12L48.867 5.14C49.7737 4.11333 50.8604 3.6 52.127 3.6C52.607 3.6 53.0537 3.66667 53.467 3.8C53.8937 3.93333 54.2137 4.12667 54.427 4.38Z" fill="#FDFDFD"/>
</svg>
