<svg width="244" height="42" viewBox="0 0 244 42" fill="none" xmlns="http://www.w3.org/2000/svg">
<g filter="url(#filter0_d_5_11)">
<path d="M19.52 19.76C19.52 22.1333 18.76 23.84 17.24 24.88C15.7467 25.92 13.6133 26.44 10.84 26.44C8.89333 26.44 6.65333 26.16 4.12 25.6C4.17333 25.0667 4.29333 24.3067 4.48 23.32C4.69333 22.3067 4.86667 21.5333 5 21C5.96 21.16 7.02667 21.2933 8.2 21.4C9.37333 21.48 10.3733 21.52 11.2 21.52C11.92 21.52 12.36 21.48 12.52 21.4C12.5467 21.3733 12.5733 21.3067 12.6 21.2C12.6533 21.0667 12.68 20.9333 12.68 20.8C12.68 20.2667 12.3467 19.9067 11.68 19.72C11.4667 19.6667 10.6533 19.44 9.24 19.04C7.82667 18.64 6.66667 17.92 5.76 16.88C4.88 15.8133 4.44 14.4933 4.44 12.92C4.44 12.0933 4.62667 11.1733 5 10.16C5.37333 9.14667 5.77333 8.50667 6.2 8.24C6.52 8.02667 7.29333 7.81333 8.52 7.6C9.74667 7.36 10.88 7.24 11.92 7.24C14.1333 7.24 16.36 7.4 18.6 7.72C18.6 8.2 18.5333 9.01333 18.4 10.16C18.2667 11.28 18.1467 11.9867 18.04 12.28C15.7733 11.9867 13.9467 11.84 12.56 11.84C11.84 11.84 11.3733 11.88 11.16 11.96C11.1067 11.9867 11.0533 12.0667 11 12.2C10.9467 12.3067 10.92 12.4533 10.92 12.64C10.92 13.0133 11.04 13.28 11.28 13.44C11.52 13.6267 12.1467 13.8533 13.16 14.12C14.36 14.4667 15.3867 14.8267 16.24 15.2C17.12 15.5733 17.88 16.1333 18.52 16.88C19.1867 17.6267 19.52 18.5867 19.52 19.76ZM32.9484 21.2C33.6151 21.2 34.8551 21.1333 36.6684 21C36.9084 21 37.3484 20.9733 37.9884 20.92L38.5884 25.04C36.5351 26 33.8684 26.48 30.5884 26.48C27.5218 26.48 25.1618 25.7067 23.5084 24.16C21.8818 22.6133 21.0684 20.28 21.0684 17.16C21.0684 15.56 21.2684 14.0133 21.6684 12.52C22.0951 11.0267 22.5751 9.98667 23.1084 9.4C23.6684 8.81333 24.7084 8.30667 26.2284 7.88C27.7484 7.45333 29.2551 7.24 30.7484 7.24C33.1484 7.24 34.9484 7.66667 36.1484 8.52C37.3484 9.37333 38.1351 10.56 38.5084 12.08C38.8818 13.5733 39.0684 15.5867 39.0684 18.12C37.2551 18.2267 35.4818 18.28 33.7484 18.28H28.0684C28.0684 19.1333 28.2418 19.7733 28.5884 20.2C28.9618 20.6267 29.4818 20.9067 30.1484 21.04C30.8151 21.1467 31.7484 21.2 32.9484 21.2ZM28.4684 12C28.3084 12.08 28.1884 12.4267 28.1084 13.04C28.0284 13.6533 27.9751 14.3467 27.9484 15.12H30.0284C31.2818 15.12 32.1884 15.1067 32.7484 15.08C32.7484 13.8 32.5618 12.8933 32.1884 12.36C31.8418 11.8267 31.2284 11.56 30.3484 11.56C29.6284 11.56 29.0018 11.7067 28.4684 12ZM41.5959 2L48.4359 1.72V26H41.5959V2ZM60.5475 5.52C60.3608 5.70667 60.2675 6.28 60.2675 7.24V7.6H64.5075V11.52H60.2675V26H53.4275V11.52H50.4275V7.96L53.4275 7.6V7C53.4275 5.82666 53.5875 4.70667 53.9075 3.64C54.2275 2.57333 54.5208 1.93333 54.7875 1.72C55.6142 1.02667 57.3742 0.679999 60.0675 0.679999C61.5342 0.679999 63.1742 0.786666 64.9875 1C64.9875 1.32 64.9342 1.96 64.8275 2.92C64.7475 3.88 64.6675 4.69333 64.5875 5.36L62.8675 5.32C61.4542 5.32 60.6808 5.38667 60.5475 5.52ZM65.9616 12.84H77.9616V18.56H65.9616V12.84ZM89.4481 18.44C89.4481 18.92 89.4615 19.4267 89.4881 19.96C89.5148 20.4667 89.5948 20.7867 89.7281 20.92C89.9148 21.1067 90.5681 21.2 91.6881 21.2L93.0481 21.16C93.2881 22.44 93.4081 23.92 93.4081 25.6C92.9015 25.7867 92.1548 25.96 91.1681 26.12C90.2081 26.28 89.2881 26.36 88.4081 26.36C86.5681 26.36 85.1415 25.96 84.1281 25.16C83.1415 24.3333 82.6481 23.0667 82.6481 21.36V11.52H79.6481V7.88L82.6481 7.6L84.4481 3.2L89.4481 2.92V7.6H93.6881V11.52H89.4481V18.44ZM106.694 26L106.054 23.48C104.827 25.48 103.12 26.48 100.934 26.48C99.1471 26.48 97.6804 25.9867 96.5338 25C95.4138 23.9867 94.8538 22.5733 94.8538 20.76C94.8538 19.64 95.1738 18.6667 95.8138 17.84C96.4804 16.9867 97.3871 16.3867 98.5338 16.04C100.027 15.6133 102.334 15.3733 105.454 15.32C105.454 13.56 105.374 12.6267 105.214 12.52C105.08 12.4133 104.654 12.36 103.934 12.36C103.48 12.36 102.854 12.3867 102.054 12.44C100.774 12.4933 99.0404 12.64 96.8538 12.88C96.6404 11.44 96.4804 9.89333 96.3738 8.24C97.7871 7.94667 99.2671 7.70667 100.814 7.52C102.36 7.30667 103.747 7.2 104.974 7.2C107.107 7.2 108.707 7.56 109.774 8.28C110.84 8.97333 111.534 9.89333 111.854 11.04C112.174 12.1867 112.32 13.64 112.294 15.4L112.254 21.28L112.374 26H106.694ZM103.254 22C103.947 22 104.68 21.8667 105.454 21.6V18.64H105.134C103.16 18.64 102.067 18.7467 101.854 18.96C101.72 19.0933 101.614 19.2933 101.534 19.56C101.48 19.8267 101.454 20.08 101.454 20.32C101.454 20.96 101.6 21.4 101.894 21.64C102.187 21.88 102.64 22 103.254 22ZM133.782 7.6V26H128.222L127.462 22.92C125.542 25.24 123.249 26.4 120.582 26.4C119.622 26.4 118.716 26.2667 117.862 26C117.036 25.7333 116.409 25.3467 115.982 24.84C115.742 24.5467 115.556 23.8133 115.422 22.64C115.316 21.4667 115.262 19.68 115.262 17.28V7.6H122.102V17.2C122.102 17.7333 122.116 18.36 122.142 19.08C122.169 19.8 122.249 20.2533 122.382 20.44C122.569 20.7067 123.102 20.84 123.982 20.84L124.622 20.8C125.369 20.7733 126.142 20.6 126.942 20.28V7.6H133.782ZM146.662 7.28C147.915 7.28 149.222 7.37333 150.582 7.56C151.942 7.72 153.529 7.94667 155.342 8.24V24.16C155.342 27.9733 154.075 30.9333 151.542 33.04C151.222 33.3067 150.502 33.5333 149.382 33.72C148.262 33.9067 146.995 34 145.582 34C142.515 34 140.089 33.6 138.302 32.8C138.275 32.2133 138.315 31.44 138.422 30.48C138.555 29.52 138.689 28.76 138.822 28.2C140.742 28.4933 142.622 28.64 144.462 28.64C145.395 28.64 146.182 28.5867 146.822 28.48C147.489 28.4 147.902 28.2667 148.062 28.08C148.275 27.8667 148.435 27.0667 148.542 25.68C148.569 25.3067 148.582 24.76 148.582 24.04V23.04C147.915 24.0267 147.062 24.7333 146.022 25.16C144.982 25.5867 144.049 25.8 143.222 25.8C140.982 25.8 139.289 25.0667 138.142 23.6C136.995 22.1333 136.422 19.9867 136.422 17.16C136.422 15.2933 136.675 13.5467 137.182 11.92C137.715 10.2667 138.435 9.12 139.342 8.48C139.929 8.08 140.875 7.78667 142.182 7.6C143.515 7.38667 145.009 7.28 146.662 7.28ZM145.822 20.8C146.809 20.8 147.702 20.64 148.502 20.32V11.96C148.209 11.9067 147.769 11.8533 147.182 11.8C146.915 11.7733 146.515 11.76 145.982 11.76C145.155 11.76 144.635 11.84 144.422 12C144.129 12.2133 143.889 12.8133 143.702 13.8C143.542 14.76 143.462 15.7733 143.462 16.84C143.462 18.3067 143.622 19.3333 143.942 19.92C144.289 20.5067 144.915 20.8 145.822 20.8ZM176.385 8.76C176.625 9.05333 176.799 9.78667 176.905 10.96C177.039 12.1333 177.105 13.92 177.105 16.32V26H170.265V16.4C170.265 16.2933 170.265 15.7733 170.265 14.84C170.265 13.88 170.199 13.2933 170.065 13.08C169.985 12.9733 169.785 12.8933 169.465 12.84C169.172 12.7867 168.825 12.76 168.425 12.76L167.745 12.8C166.999 12.8267 166.225 13 165.425 13.32V26H158.585V2L165.425 1.72V6.4C165.425 8.32 165.359 9.6 165.225 10.24L165.265 10.28C167.079 8.22667 169.252 7.2 171.785 7.2C172.745 7.2 173.639 7.33333 174.465 7.6C175.319 7.86667 175.959 8.25333 176.385 8.76ZM188.745 18.44C188.745 18.92 188.758 19.4267 188.785 19.96C188.812 20.4667 188.892 20.7867 189.025 20.92C189.212 21.1067 189.865 21.2 190.985 21.2L192.345 21.16C192.585 22.44 192.705 23.92 192.705 25.6C192.198 25.7867 191.452 25.96 190.465 26.12C189.505 26.28 188.585 26.36 187.705 26.36C185.865 26.36 184.438 25.96 183.425 25.16C182.438 24.3333 181.945 23.0667 181.945 21.36V11.52H178.945V7.88L181.945 7.6L183.745 3.2L188.745 2.92V7.6H192.985V11.52H188.745V18.44ZM198.751 26.32C197.657 26.32 196.751 25.96 196.031 25.24C195.337 24.52 194.991 23.5467 194.991 22.32C194.991 21.2533 195.351 20.36 196.071 19.64C196.817 18.8933 197.751 18.52 198.871 18.52C199.937 18.52 200.831 18.8933 201.551 19.64C202.271 20.36 202.631 21.2533 202.631 22.32C202.631 23.5467 202.271 24.52 201.551 25.24C200.857 25.96 199.924 26.32 198.751 26.32ZM217.29 7.2C217.637 7.2 217.997 7.24 218.37 7.32C218.77 7.4 219.063 7.49333 219.25 7.6C219.25 8.18667 219.183 9.16 219.05 10.52C218.917 11.8533 218.797 12.8 218.69 13.36C218.423 13.3333 217.93 13.32 217.21 13.32C215.53 13.32 214.037 13.4133 212.73 13.6V26H205.89V7.6H211.61L212.41 10.56H212.45C213.223 9.54667 214.05 8.73333 214.93 8.12C215.81 7.50667 216.597 7.2 217.29 7.2ZM239.446 7.6V26H233.886L233.126 22.92C231.206 25.24 228.913 26.4 226.246 26.4C225.286 26.4 224.38 26.2667 223.526 26C222.7 25.7333 222.073 25.3467 221.646 24.84C221.406 24.5467 221.22 23.8133 221.086 22.64C220.98 21.4667 220.926 19.68 220.926 17.28V7.6H227.766V17.2C227.766 17.7333 227.78 18.36 227.806 19.08C227.833 19.8 227.913 20.2533 228.046 20.44C228.233 20.7067 228.766 20.84 229.646 20.84L230.286 20.8C231.033 20.7733 231.806 20.6 232.606 20.28V7.6H239.446Z" fill="black" fill-opacity="0.8" shape-rendering="crispEdges"/>
</g>
<defs>
<filter id="filter0_d_5_11" x="0.119995" y="0.680054" width="243.326" height="41.3199" filterUnits="userSpaceOnUse" color-interpolation-filters="sRGB">
<feFlood flood-opacity="0" result="BackgroundImageFix"/>
<feColorMatrix in="SourceAlpha" type="matrix" values="0 0 0 0 0 0 0 0 0 0 0 0 0 0 0 0 0 0 127 0" result="hardAlpha"/>
<feOffset dy="4"/>
<feGaussianBlur stdDeviation="2"/>
<feComposite in2="hardAlpha" operator="out"/>
<feColorMatrix type="matrix" values="0 0 0 0 0 0 0 0 0 0 0 0 0 0 0 0 0 0 0.15 0"/>
<feBlend mode="normal" in2="BackgroundImageFix" result="effect1_dropShadow_5_11"/>
<feBlend mode="normal" in="SourceGraphic" in2="effect1_dropShadow_5_11" result="shape"/>
</filter>
</defs>
</svg>
